<svg width="81" height="80" viewBox="0 0 81 80" fill="none" xmlns="http://www.w3.org/2000/svg">
<rect x="0.00488281" width="80" height="80" rx="10" fill="#FF0164"/>
<path d="M40.0049 15C35.0604 15 30.2269 16.4662 26.1156 19.2133C22.0044 21.9603 18.8001 25.8648 16.9079 30.4329C15.0157 35.0011 14.5206 40.0277 15.4853 44.8773C16.4499 49.7268 18.8309 54.1813 22.3272 57.6777C25.8235 61.174 30.2781 63.555 35.1276 64.5196C39.9772 65.4842 45.0038 64.9892 49.572 63.097C54.1401 61.2048 58.0446 58.0005 60.7916 53.8892C63.5387 49.778 65.0049 44.9445 65.0049 40C64.9973 33.3719 62.361 27.0175 57.6742 22.3307C52.9874 17.6439 46.633 15.0076 40.0049 15ZM40.0049 61.4286C34.3217 61.4286 28.8712 59.1709 24.8526 55.1523C20.834 51.1336 18.5763 45.6832 18.5763 40C18.5763 34.3168 20.834 28.8663 24.8526 24.8477C28.8712 20.8291 34.3217 18.5714 40.0049 18.5714V40L55.1495 55.1446C53.1634 57.1379 50.8031 58.7191 48.2041 59.7975C45.6051 60.8758 42.8187 61.4302 40.0049 61.4286Z" fill="white"/>
</svg>
