<svg width="50" height="50" viewBox="0 0 50 50" fill="none" xmlns="http://www.w3.org/2000/svg">
<path fill-rule="evenodd" clip-rule="evenodd" d="M15.625 35.9375C15.625 35.5231 15.7896 35.1257 16.0826 34.8326C16.3757 34.5396 16.7731 34.375 17.1875 34.375H45.3125C45.7269 34.375 46.1243 34.5396 46.4174 34.8326C46.7104 35.1257 46.875 35.5231 46.875 35.9375C46.875 36.3519 46.7104 36.7493 46.4174 37.0424C46.1243 37.3354 45.7269 37.5 45.3125 37.5H17.1875C16.7731 37.5 16.3757 37.3354 16.0826 37.0424C15.7896 36.7493 15.625 36.3519 15.625 35.9375ZM15.625 23.4375C15.625 23.0231 15.7896 22.6257 16.0826 22.3326C16.3757 22.0396 16.7731 21.875 17.1875 21.875H45.3125C45.7269 21.875 46.1243 22.0396 46.4174 22.3326C46.7104 22.6257 46.875 23.0231 46.875 23.4375C46.875 23.8519 46.7104 24.2493 46.4174 24.5424C46.1243 24.8354 45.7269 25 45.3125 25H17.1875C16.7731 25 16.3757 24.8354 16.0826 24.5424C15.7896 24.2493 15.625 23.8519 15.625 23.4375ZM15.625 10.9375C15.625 10.5231 15.7896 10.1257 16.0826 9.83265C16.3757 9.53962 16.7731 9.375 17.1875 9.375H45.3125C45.7269 9.375 46.1243 9.53962 46.4174 9.83265C46.7104 10.1257 46.875 10.5231 46.875 10.9375C46.875 11.3519 46.7104 11.7493 46.4174 12.0424C46.1243 12.3354 45.7269 12.5 45.3125 12.5H17.1875C16.7731 12.5 16.3757 12.3354 16.0826 12.0424C15.7896 11.7493 15.625 11.3519 15.625 10.9375ZM6.25 14.0625C7.0788 14.0625 7.87366 13.7333 8.45971 13.1472C9.04576 12.5612 9.375 11.7663 9.375 10.9375C9.375 10.1087 9.04576 9.31384 8.45971 8.72779C7.87366 8.14174 7.0788 7.8125 6.25 7.8125C5.4212 7.8125 4.62634 8.14174 4.04029 8.72779C3.45424 9.31384 3.125 10.1087 3.125 10.9375C3.125 11.7663 3.45424 12.5612 4.04029 13.1472C4.62634 13.7333 5.4212 14.0625 6.25 14.0625ZM6.25 26.5625C7.0788 26.5625 7.87366 26.2333 8.45971 25.6472C9.04576 25.0612 9.375 24.2663 9.375 23.4375C9.375 22.6087 9.04576 21.8138 8.45971 21.2278C7.87366 20.6417 7.0788 20.3125 6.25 20.3125C5.4212 20.3125 4.62634 20.6417 4.04029 21.2278C3.45424 21.8138 3.125 22.6087 3.125 23.4375C3.125 24.2663 3.45424 25.0612 4.04029 25.6472C4.62634 26.2333 5.4212 26.5625 6.25 26.5625ZM6.25 39.0625C7.0788 39.0625 7.87366 38.7333 8.45971 38.1472C9.04576 37.5612 9.375 36.7663 9.375 35.9375C9.375 35.1087 9.04576 34.3138 8.45971 33.7278C7.87366 33.1417 7.0788 32.8125 6.25 32.8125C5.4212 32.8125 4.62634 33.1417 4.04029 33.7278C3.45424 34.3138 3.125 35.1087 3.125 35.9375C3.125 36.7663 3.45424 37.5612 4.04029 38.1472C4.62634 38.7333 5.4212 39.0625 6.25 39.0625Z" fill="#1BDDBB"/>
</svg>
