<svg width="30" height="30" viewBox="0 0 30 30" fill="none" xmlns="http://www.w3.org/2000/svg">
<circle cx="15" cy="15" r="15" fill="#ACACAC" fill-opacity="0.57"/>
<path d="M20.5534 17.9367C20.5534 18.1755 20.4622 18.4155 20.2797 18.598L15.9422 22.9567C15.7659 23.133 15.5272 23.2317 15.2772 23.2317C15.0284 23.2317 14.7897 23.133 14.6134 22.9567L10.2734 18.598C9.90844 18.2317 9.90844 17.6392 10.2759 17.273C10.6434 16.908 11.2372 16.9092 11.6022 17.2755L15.2772 20.9667L18.9522 17.2755C19.3172 16.9092 19.9097 16.908 20.2772 17.273C20.4622 17.4555 20.5534 17.6967 20.5534 17.9367Z" fill="white"/>
<path d="M10.0003 11.295C10.0003 11.0562 10.0915 10.8162 10.274 10.6337L14.6115 6.27497C14.7878 6.09872 15.0265 5.99997 15.2765 5.99997C15.5253 5.99997 15.764 6.09872 15.9403 6.27497L20.2803 10.6337C20.6453 11 20.6453 11.5925 20.2778 11.9587C19.9103 12.3237 19.3165 12.3225 18.9515 11.9562L15.2765 8.26497L11.6015 11.9562C11.2365 12.3225 10.644 12.3237 10.2765 11.9587C10.0915 11.7762 10.0003 11.535 10.0003 11.295Z" fill="white"/>
</svg>
