<svg width="32" height="31" viewBox="0 0 32 31" fill="none" xmlns="http://www.w3.org/2000/svg">
<path d="M29.5782 15.288L16.7063 2.82749C16.6137 2.73753 16.5036 2.66616 16.3824 2.61746C16.2612 2.56877 16.1313 2.5437 16.0001 2.5437C15.8689 2.5437 15.739 2.56877 15.6178 2.61746C15.4966 2.66616 15.3865 2.73753 15.2938 2.82749L2.42197 15.288C2.04697 15.6513 1.83447 16.1448 1.83447 16.6594C1.83447 17.7281 2.73135 18.5969 3.83447 18.5969H5.19072V27.4882C5.19072 28.0241 5.6376 28.457 6.19072 28.457H14.0001V21.6757H17.5001V28.457H25.8095C26.3626 28.457 26.8095 28.0241 26.8095 27.4882V18.5969H28.1657C28.697 18.5969 29.2063 18.3941 29.5813 18.0278C30.3595 17.2709 30.3595 16.0449 29.5782 15.288Z" fill="white"/>
</svg>
