<svg width="81" height="80" viewBox="0 0 81 80" fill="none" xmlns="http://www.w3.org/2000/svg">
<rect x="0.00488281" width="80" height="80" rx="10" fill="#112350"/>
<path d="M15.0049 24.375C15.0049 21.8886 15.9926 19.504 17.7508 17.7459C19.5089 15.9877 21.8935 15 24.3799 15H49.3799C51.8663 15 54.2509 15.9877 56.009 17.7459C57.7672 19.504 58.7549 21.8886 58.7549 24.375V35.0031C57.3295 34.1802 55.7126 33.747 54.0667 33.7471C52.4208 33.7472 50.8039 34.1807 49.3786 35.0038C47.9534 35.827 46.7699 37.0109 45.9473 38.4365C45.1247 39.8621 44.6919 41.4791 44.6924 43.125H40.0049C39.5905 43.125 39.1931 43.2896 38.9 43.5826C38.607 43.8757 38.4424 44.2731 38.4424 44.6875C38.4424 45.1019 38.607 45.4993 38.9 45.7924C39.1931 46.0854 39.5905 46.25 40.0049 46.25H45.2236C45.6373 47.4161 46.2778 48.4888 47.108 49.4062C45.1667 49.5833 43.3617 50.4796 42.0474 51.9194C40.7332 53.3591 40.0046 55.2381 40.0049 57.1875C40.0049 57.7094 40.0455 58.2313 40.1236 58.75H24.3799C21.8935 58.75 19.5089 57.7623 17.7508 56.0041C15.9926 54.246 15.0049 51.8614 15.0049 49.375V24.375ZM34.8611 27.825C35.1545 27.5316 35.3194 27.1337 35.3194 26.7188C35.3194 26.3038 35.1545 25.9059 34.8611 25.6125C34.5677 25.3191 34.1698 25.1543 33.7549 25.1543C33.34 25.1543 32.942 25.3191 32.6486 25.6125L28.2361 30.025L26.9955 28.8938C26.6873 28.6303 26.2886 28.497 25.8839 28.522C25.4792 28.547 25.1 28.7284 24.8266 29.0278C24.5531 29.3272 24.4067 29.7212 24.4185 30.1266C24.4302 30.5319 24.599 30.9168 24.8893 31.2L27.233 33.3406C27.53 33.611 27.9196 33.7566 28.3211 33.7473C28.7226 33.738 29.1051 33.5745 29.3893 33.2906L34.858 27.8219L34.8611 27.825ZM34.8611 41.2375C34.716 41.092 34.5436 40.9765 34.3537 40.8978C34.1639 40.819 33.9604 40.7785 33.7549 40.7785C33.5494 40.7785 33.3459 40.819 33.156 40.8978C32.9662 40.9765 32.7938 41.092 32.6486 41.2375L28.2361 45.65L26.9955 44.5188C26.6873 44.2553 26.2886 44.122 25.8839 44.147C25.4792 44.172 25.1 44.3534 24.8266 44.6528C24.5531 44.9522 24.4067 45.3463 24.4185 45.7516C24.4302 46.1569 24.599 46.5418 24.8893 46.825L27.233 48.9656C27.5296 49.2364 27.919 49.3826 28.3205 49.3739C28.722 49.3651 29.1047 49.2022 29.3893 48.9188L34.858 43.45C35.1509 43.157 35.3155 42.7596 35.3155 42.3453C35.3155 41.931 35.1509 41.5336 34.858 41.2406L34.8611 41.2375ZM38.4424 29.0625C38.4424 29.4769 38.607 29.8743 38.9 30.1674C39.1931 30.4604 39.5905 30.625 40.0049 30.625H47.8174C48.2318 30.625 48.6292 30.4604 48.9222 30.1674C49.2153 29.8743 49.3799 29.4769 49.3799 29.0625C49.3799 28.6481 49.2153 28.2507 48.9222 27.9576C48.6292 27.6646 48.2318 27.5 47.8174 27.5H40.0049C39.5905 27.5 39.1931 27.6646 38.9 27.9576C38.607 28.2507 38.4424 28.6481 38.4424 29.0625ZM60.3174 43.125C60.3174 44.7826 59.6589 46.3723 58.4868 47.5444C57.3147 48.7165 55.725 49.375 54.0674 49.375C52.4098 49.375 50.8201 48.7165 49.648 47.5444C48.4759 46.3723 47.8174 44.7826 47.8174 43.125C47.8174 41.4674 48.4759 39.8777 49.648 38.7056C50.8201 37.5335 52.4098 36.875 54.0674 36.875C55.725 36.875 57.3147 37.5335 58.4868 38.7056C59.6589 39.8777 60.3174 41.4674 60.3174 43.125ZM65.0049 57.1875C65.0049 61.0781 61.8799 65 54.0674 65C46.2549 65 43.1299 61.0938 43.1299 57.1875C43.1299 55.9443 43.6237 54.752 44.5028 53.8729C45.3819 52.9939 46.5742 52.5 47.8174 52.5H60.3174C61.5606 52.5 62.7529 52.9939 63.6319 53.8729C64.511 54.752 65.0049 55.9443 65.0049 57.1875Z" fill="white"/>
</svg>
