<svg width="81" height="80" viewBox="0 0 81 80" fill="none" xmlns="http://www.w3.org/2000/svg">
<rect x="0.00488281" width="80" height="80" rx="10" fill="#1BDDBB"/>
<path d="M40.0049 15C46.6353 15 52.9941 17.6339 57.6826 22.3223C62.371 27.0107 65.0049 33.3696 65.0049 40C65.0049 46.6304 62.371 52.9893 57.6826 57.6777C52.9941 62.3661 46.6353 65 40.0049 65C33.3745 65 27.0156 62.3661 22.3272 57.6777C17.6388 52.9893 15.0049 46.6304 15.0049 40C15.0049 33.3696 17.6388 27.0107 22.3272 22.3223C27.0156 17.6339 33.3745 15 40.0049 15ZM36.8906 44.9321L31.337 39.375C31.1379 39.1759 30.9016 39.018 30.6414 38.9102C30.3813 38.8025 30.1025 38.747 29.821 38.747C29.5394 38.747 29.2606 38.8025 29.0005 38.9102C28.7403 39.018 28.504 39.1759 28.3049 39.375C27.9028 39.7771 27.6769 40.3224 27.6769 40.8911C27.6769 41.4597 27.9028 42.0051 28.3049 42.4071L35.3763 49.4786C35.5748 49.6787 35.811 49.8375 36.0712 49.9459C36.3314 50.0542 36.6105 50.11 36.8924 50.11C37.1743 50.11 37.4533 50.0542 37.7135 49.9459C37.9737 49.8375 38.2099 49.6787 38.4085 49.4786L53.0513 34.8321C53.2531 34.6339 53.4136 34.3976 53.5236 34.137C53.6336 33.8764 53.6909 33.5966 53.6922 33.3137C53.6935 33.0309 53.6388 32.7505 53.5312 32.4889C53.4237 32.2273 53.2654 31.9896 53.0655 31.7894C52.8656 31.5893 52.628 31.4307 52.3665 31.3228C52.105 31.215 51.8248 31.1599 51.5419 31.1609C51.259 31.1619 50.9792 31.2189 50.7184 31.3286C50.4577 31.4383 50.2212 31.5985 50.0227 31.8L36.8906 44.9321Z" fill="white"/>
</svg>
