<svg width="30" height="30" viewBox="0 0 30 30" fill="none" xmlns="http://www.w3.org/2000/svg">
<path d="M14.9999 28.5666C15.5249 28.5545 16.0286 28.3572 16.4221 28.0095C16.8156 27.6618 17.0734 27.1861 17.1499 26.6666H12.7666C12.8453 27.2002 13.1152 27.6871 13.526 28.0366C13.9368 28.3861 14.4606 28.5744 14.9999 28.5666Z" fill="white"/>
<path d="M27.3748 23.4416L27.0915 23.1916C26.2877 22.4755 25.5841 21.6542 24.9998 20.75C24.3617 19.5021 23.9792 18.1393 23.8748 16.7416V12.625C23.8715 12.1249 23.8269 11.626 23.7415 11.1333C22.3299 10.8432 21.062 10.0741 20.1523 8.95644C19.2427 7.83874 18.7472 6.44104 18.7498 4.99996V4.47496C17.8798 4.04678 16.945 3.76522 15.9832 3.64163V2.59163C15.9832 2.29657 15.866 2.0136 15.6573 1.80497C15.4487 1.59634 15.1657 1.47913 14.8707 1.47913C14.5756 1.47913 14.2926 1.59634 14.084 1.80497C13.8754 2.0136 13.7582 2.29657 13.7582 2.59163V3.68329C11.6046 3.98709 9.63365 5.05975 8.20919 6.70324C6.78473 8.34673 6.00294 10.4501 6.00817 12.625V16.7416C5.9038 18.1393 5.52132 19.5021 4.88317 20.75C4.30891 21.6519 3.61667 22.4731 2.82484 23.1916L2.5415 23.4416V25.7916H27.3748V23.4416Z" fill="white"/>
<path d="M25.0002 9.16671C27.3013 9.16671 29.1668 7.30123 29.1668 5.00004C29.1668 2.69885 27.3013 0.833374 25.0002 0.833374C22.699 0.833374 20.8335 2.69885 20.8335 5.00004C20.8335 7.30123 22.699 9.16671 25.0002 9.16671Z" fill="#FF0000"/>
</svg>
