<svg width="25" height="25" viewBox="0 0 25 25" fill="none" xmlns="http://www.w3.org/2000/svg">
<rect width="25" height="25" fill="white"/>
<path d="M12.5 23.806C12.9375 23.7959 13.3573 23.6315 13.6852 23.3417C14.0131 23.0519 14.2279 22.6556 14.2917 22.2227H10.6389C10.7045 22.6673 10.9294 23.073 11.2718 23.3643C11.6141 23.6555 12.0506 23.8125 12.5 23.806V23.806Z" fill="#FF0164"/>
<path d="M22.8126 19.5345L22.5765 19.3262C21.9067 18.7294 21.3204 18.045 20.8334 17.2915C20.3017 16.2516 19.9829 15.1159 19.8959 13.9512V10.5206C19.8931 10.1039 19.856 9.68816 19.7848 9.27756C18.6085 9.03578 17.5519 8.39494 16.7939 7.46352C16.0358 6.5321 15.6229 5.36735 15.6251 4.16645V3.72895C14.9001 3.37214 14.1211 3.1375 13.3196 3.03451V2.15951C13.3196 1.91363 13.2219 1.67782 13.048 1.50396C12.8742 1.3301 12.6383 1.23242 12.3925 1.23242C12.1466 1.23242 11.9108 1.3301 11.7369 1.50396C11.5631 1.67782 11.4654 1.91363 11.4654 2.15951V3.06923C9.67075 3.32239 8.02829 4.21627 6.84123 5.58585C5.65418 6.95542 5.0027 8.70821 5.00705 10.5206V13.9512C4.92008 15.1159 4.60134 16.2516 4.06955 17.2915C3.591 18.0431 3.01413 18.7274 2.35428 19.3262L2.11816 19.5345V21.4928H22.8126V19.5345Z" fill="#FF0164"/>
<path d="M20.8333 7.63878C22.751 7.63878 24.3055 6.08421 24.3055 4.16656C24.3055 2.2489 22.751 0.694336 20.8333 0.694336C18.9157 0.694336 17.3611 2.2489 17.3611 4.16656C17.3611 6.08421 18.9157 7.63878 20.8333 7.63878Z" fill="#FF0164"/>
</svg>
