<svg width="30" height="30" viewBox="0 0 30 30" fill="none" xmlns="http://www.w3.org/2000/svg">
<rect width="30" height="30" fill="white"/>
<path d="M15.0001 28.567C15.525 28.5549 16.0288 28.3575 16.4222 28.0098C16.8157 27.6621 17.0735 27.1865 17.1501 26.667H12.7667C12.8455 27.2006 13.1153 27.6874 13.5261 28.0369C13.937 28.3864 14.4607 28.5748 15.0001 28.567V28.567Z" fill="#0B135A"/>
<path d="M27.375 23.442L27.0916 23.192C26.2878 22.4758 25.5843 21.6545 25 20.7503C24.3618 19.5024 23.9793 18.1397 23.875 16.742V12.6253C23.8716 12.1253 23.827 11.6264 23.7416 11.1337C22.3301 10.8435 21.0621 10.0745 20.1525 8.95681C19.2428 7.83911 18.7474 6.4414 18.75 5.00033V4.47533C17.8799 4.04715 16.9451 3.76558 15.9833 3.64199V2.59199C15.9833 2.29694 15.8661 2.01397 15.6574 1.80534C15.4488 1.5967 15.1658 1.47949 14.8708 1.47949C14.5757 1.47949 14.2928 1.5967 14.0841 1.80534C13.8755 2.01397 13.7583 2.29694 13.7583 2.59199V3.68366C11.6047 3.98745 9.63377 5.06011 8.20931 6.7036C6.78485 8.34709 6.00307 10.4504 6.00829 12.6253V16.742C5.90392 18.1397 5.52144 19.5024 4.88329 20.7503C4.30903 21.6523 3.61679 22.4734 2.82496 23.192L2.54163 23.442V25.792H27.375V23.442Z" fill="#0B135A"/>
<path d="M25 9.16634C27.3012 9.16634 29.1667 7.30086 29.1667 4.99967C29.1667 2.69849 27.3012 0.833008 25 0.833008C22.6989 0.833008 20.8334 2.69849 20.8334 4.99967C20.8334 7.30086 22.6989 9.16634 25 9.16634Z" fill="#0B135A"/>
</svg>
