<svg width="220" height="220" viewBox="0 0 220 220" fill="none" xmlns="http://www.w3.org/2000/svg">
<g clip-path="url(#clip0_675_132)">
<path d="M212.257 109.996C215.655 106.039 218.036 101.313 219.194 96.2284C220.351 91.1433 220.251 85.8526 218.901 80.8152C217.551 75.7777 214.993 71.1457 211.447 67.321C207.902 63.4962 203.477 60.5942 198.556 58.8668C199.52 53.7413 199.219 48.458 197.679 43.4752C196.139 38.4923 193.407 33.9605 189.719 30.2729C186.03 26.5853 181.498 23.8533 176.515 22.3139C171.532 20.7745 166.249 20.4741 161.124 21.4389C159.397 16.517 156.496 12.0909 152.671 8.54469C148.846 4.99852 144.214 2.43953 139.176 1.08992C134.138 -0.259699 128.846 -0.359153 123.761 0.80019C118.675 1.95953 113.95 4.34263 109.995 7.74258C106.038 4.34497 101.312 1.96402 96.2272 0.806279C91.1422 -0.351462 85.8514 -0.251028 80.814 1.09886C75.7765 2.44876 71.1445 5.00734 67.3198 8.55266C63.495 12.098 60.5931 16.5229 58.8656 21.4437C53.7405 20.4804 48.4577 20.7821 43.4755 22.3226C38.4933 23.8631 33.9622 26.5958 30.2752 30.2837C26.5882 33.9717 23.8567 38.5035 22.3175 43.486C20.7783 48.4686 20.478 53.7514 21.4425 58.8763C16.5218 60.6038 12.0968 63.5058 8.55145 67.3305C5.00613 71.1553 2.44754 75.7873 1.09764 80.8247C-0.252249 85.8622 -0.352698 91.1529 0.805044 96.2379C1.96278 101.323 4.34378 106.049 7.74139 110.005C4.34274 113.962 1.96102 118.688 0.802949 123.773C-0.355122 128.859 -0.254586 134.15 1.0959 139.188C2.44638 144.226 5.00597 148.858 8.5525 152.683C12.099 156.507 16.5254 159.408 21.4473 161.134C20.4819 166.259 20.7819 171.543 22.3213 176.525C23.8606 181.508 26.5929 186.04 30.2808 189.727C33.9688 193.415 38.5009 196.147 43.4839 197.685C48.4669 199.224 53.7502 199.523 58.8751 198.557C60.6026 203.478 63.5046 207.903 67.3293 211.448C71.1541 214.994 75.7861 217.552 80.8235 218.902C85.8609 220.252 91.1517 220.353 96.2367 219.195C101.322 218.037 106.048 215.656 110.004 212.258C113.961 215.657 118.687 218.039 123.772 219.197C128.858 220.355 134.149 220.254 139.187 218.904C144.225 217.553 148.857 214.994 152.682 211.447C156.506 207.901 159.407 203.474 161.133 198.553C166.258 199.518 171.542 199.218 176.525 197.678C181.507 196.139 186.039 193.407 189.727 189.719C193.415 186.031 196.147 181.499 197.686 176.516C199.226 171.533 199.526 166.25 198.561 161.125C203.482 159.398 207.907 156.496 211.453 152.671C214.998 148.846 217.557 144.214 218.906 139.176C220.256 134.138 220.356 128.847 219.197 123.762C218.038 118.677 215.656 113.952 212.257 109.996Z" fill="#1BDDBB"/>
<path d="M90.2535 151.986L59.6857 121.437C58.5256 120.275 57.874 118.7 57.874 117.058C57.874 115.416 58.5256 113.841 59.6857 112.679L63.3994 108.961C64.5614 107.801 66.1362 107.149 67.7782 107.149C69.4201 107.149 70.995 107.801 72.1569 108.961L94.3772 131.167L146.708 75.5567C147.834 74.3619 149.388 73.6628 151.029 73.6127C152.67 73.5627 154.263 74.1658 155.46 75.2897L159.274 78.889C160.47 80.0152 161.17 81.5703 161.22 83.2125C161.27 84.8547 160.666 86.4495 159.541 87.6465L99.1588 151.847C98.5902 152.453 97.9057 152.939 97.1458 153.275C96.3859 153.611 95.5662 153.791 94.7354 153.804C93.9046 153.816 93.0797 153.662 92.3098 153.35C91.5398 153.038 90.8405 152.574 90.2535 151.986Z" fill="white"/>
</g>
<defs>
<clipPath id="clip0_675_132">
<rect width="220" height="220" fill="white"/>
</clipPath>
</defs>
</svg>
