<svg width="20" height="30" viewBox="0 0 20 30" fill="none" xmlns="http://www.w3.org/2000/svg">
<path d="M20 24.8242C20 26.2435 19.6745 27.4609 19.0234 28.4766C18.3724 29.4922 17.5885 30 16.6719 30H3.32812C2.41146 30 1.6276 29.4922 0.976562 28.4766C0.325521 27.4609 0 26.2435 0 24.8242C0 23.7174 0.0442708 22.6725 0.132812 21.6895C0.221354 20.7064 0.385417 19.7168 0.625 18.7207C0.864583 17.7246 1.16927 16.8717 1.53906 16.1621C1.90885 15.4525 2.39844 14.873 3.00781 14.4238C3.61719 13.9746 4.31771 13.75 5.10938 13.75C6.47396 15.4167 8.10417 16.25 10 16.25C11.8958 16.25 13.526 15.4167 14.8906 13.75C15.6823 13.75 16.3828 13.9746 16.9922 14.4238C17.6016 14.873 18.0911 15.4525 18.4609 16.1621C18.8307 16.8717 19.1354 17.7246 19.375 18.7207C19.6146 19.7168 19.7786 20.7064 19.8672 21.6895C19.9557 22.6725 20 23.7174 20 24.8242ZM16 7.5C16 9.57031 15.4141 11.3379 14.2422 12.8027C13.0703 14.2676 11.6562 15 10 15C8.34375 15 6.92969 14.2676 5.75781 12.8027C4.58594 11.3379 4 9.57031 4 7.5C4 5.42969 4.58594 3.66211 5.75781 2.19727C6.92969 0.732422 8.34375 0 10 0C11.6562 0 13.0703 0.732422 14.2422 2.19727C15.4141 3.66211 16 5.42969 16 7.5Z" fill="white"/>
</svg>
