<svg width="19" height="18" viewBox="0 0 19 18" fill="none" xmlns="http://www.w3.org/2000/svg">
<path d="M0 16V0L14.3 6H14C13.4167 6 12.8667 6.06667 12.35 6.2C11.8333 6.33333 11.3333 6.51667 10.85 6.75L2 3V6.5L8 8L2 9.5V13L7.4 10.7C7.26667 11.0833 7.16667 11.4623 7.1 11.837C7.03333 12.2123 7 12.6 7 13V13.05L0 16ZM14 18C12.6167 18 11.4377 17.5127 10.463 16.538C9.48767 15.5627 9 14.3833 9 13C9 11.6167 9.48767 10.4373 10.463 9.462C11.4377 8.48733 12.6167 8 14 8C15.3833 8 16.5627 8.48733 17.538 9.462C18.5127 10.4373 19 11.6167 19 13C19 14.3833 18.5127 15.5627 17.538 16.538C16.5627 17.5127 15.3833 18 14 18ZM2 10.7V3V13V10.7ZM12.225 15.475L13.975 13.725L15.725 15.475L16.475 14.725L14.75 13L16.5 11.25L15.75 10.5L14 12.25L12.25 10.5L11.5 11.25L13.25 13L11.5 14.75L12.225 15.475Z" fill="black"/>
</svg>
