<svg width="24" height="30" viewBox="0 0 24 30" fill="none" xmlns="http://www.w3.org/2000/svg">
<path d="M11.9994 0C11.1917 0 10.6079 0.339231 10.3771 0.685385C10.2617 0.800769 10.1682 1.03846 10.0529 1.15385H8.53786C7.26863 1.15385 6.23017 2.19231 6.23017 3.46154H3.92248C1.96094 3.46154 0.460938 4.96154 0.460938 6.92308V26.5385C0.460938 28.5 1.96094 30 3.92248 30H20.0763C22.0379 30 23.5379 28.5 23.5379 26.5385V6.92308C23.5379 4.96154 22.0379 3.46154 20.0763 3.46154H17.7686C17.7686 2.19231 16.7302 1.15385 15.4609 1.15385H13.9459C13.8306 1.03846 13.7382 0.800769 13.6229 0.685385C13.3909 0.339231 12.8071 0 11.9994 0ZM8.53786 3.46154H15.4609V5.76923H8.53786V3.46154ZM3.92248 6.92308H6.59132C6.93748 7.61538 7.73017 8.07692 8.53786 8.07692H15.4609C16.2686 8.07692 17.0613 7.61538 17.4086 6.92308H20.0763V26.5385H3.92248V6.92308ZM16.1106 12.3323C15.8936 12.3323 15.6836 12.4108 15.5682 12.5838L10.4856 17.9931L8.53786 16.1538C8.19171 15.8077 7.61478 15.8077 7.38401 16.1538L6.59017 16.9477C6.24401 17.2938 6.24401 17.8708 6.59017 18.1015L9.80017 21.1292C10.2617 21.5908 10.9609 21.4465 11.4225 20.985L17.6602 14.3158C17.8909 14.085 17.899 13.6154 17.5529 13.2692L16.7221 12.5838C16.6418 12.5035 16.5465 12.4398 16.4415 12.3965C16.3366 12.3531 16.2241 12.3309 16.1106 12.3312V12.3323Z" fill="white"/>
</svg>
