<svg width="23" height="25" viewBox="0 0 23 25" fill="none" xmlns="http://www.w3.org/2000/svg">
<path d="M21.25 0.75H1.25C0.918479 0.75 0.600537 0.881696 0.366116 1.11612C0.131696 1.35054 0 1.66848 0 2V5.2375C0 5.89125 0.26625 6.53375 0.72875 6.99625L7.5 13.7675V23.25C7.50024 23.463 7.55484 23.6723 7.65862 23.8583C7.7624 24.0443 7.91193 24.2007 8.09305 24.3127C8.27417 24.4247 8.48089 24.4887 8.69363 24.4985C8.90637 24.5083 9.11809 24.4636 9.30875 24.3688L14.3087 21.8688C14.7325 21.6562 15 21.2237 15 20.75V13.7675L21.7712 6.99625C22.2337 6.53375 22.5 5.89125 22.5 5.2375V2C22.5 1.66848 22.3683 1.35054 22.1339 1.11612C21.8995 0.881696 21.5815 0.75 21.25 0.75ZM12.8663 12.3663C12.7499 12.4821 12.6577 12.6199 12.5949 12.7715C12.532 12.9232 12.4998 13.0858 12.5 13.25V19.9775L10 21.2275V13.25C10.0002 13.0858 9.968 12.9232 9.90514 12.7715C9.84229 12.6199 9.75005 12.4821 9.63375 12.3663L2.5 5.2375V3.25H20.0012L20.0037 5.22875L12.8663 12.3663Z" fill="#112350"/>
</svg>
