<svg width="50" height="50" viewBox="0 0 50 50" fill="none" xmlns="http://www.w3.org/2000/svg">
<path d="M20 8.53659H30C30 7.24285 29.4732 6.0021 28.5355 5.08728C27.5979 4.17247 26.3261 3.65854 25 3.65854C23.6739 3.65854 22.4021 4.17247 21.4645 5.08728C20.5268 6.0021 20 7.24285 20 8.53659ZM16.25 8.53659C16.25 7.41554 16.4763 6.30548 16.9161 5.26978C17.3558 4.23407 18.0003 3.293 18.8128 2.50031C19.6253 1.70761 20.5899 1.07881 21.6515 0.649809C22.7131 0.220805 23.8509 0 25 0C26.1491 0 27.2869 0.220805 28.3485 0.649809C29.4101 1.07881 30.3747 1.70761 31.1872 2.50031C31.9997 3.293 32.6442 4.23407 33.0839 5.26978C33.5237 6.30548 33.75 7.41554 33.75 8.53659H48.125C48.6223 8.53659 49.0992 8.72931 49.4508 9.07237C49.8025 9.41542 50 9.8807 50 10.3659C50 10.851 49.8025 11.3163 49.4508 11.6593C49.0992 12.0024 48.6223 12.1951 48.125 12.1951H44.825L41.9 41.7341C41.6756 43.9975 40.5951 46.0982 38.8692 47.6264C37.1433 49.1546 34.8958 50.0009 32.565 50H17.435C15.1047 50.0003 12.8578 49.1538 11.1324 47.6256C9.40699 46.0974 8.32683 43.9971 8.1025 41.7341L5.175 12.1951H1.875C1.37772 12.1951 0.900805 12.0024 0.549175 11.6593C0.197544 11.3163 0 10.851 0 10.3659C0 9.8807 0.197544 9.41542 0.549175 9.07237C0.900805 8.72931 1.37772 8.53659 1.875 8.53659H16.25ZM21.25 20.122C21.25 19.6368 21.0525 19.1715 20.7008 18.8285C20.3492 18.4854 19.8723 18.2927 19.375 18.2927C18.8777 18.2927 18.4008 18.4854 18.0492 18.8285C17.6975 19.1715 17.5 19.6368 17.5 20.122V38.4146C17.5 38.8998 17.6975 39.3651 18.0492 39.7081C18.4008 40.0512 18.8777 40.2439 19.375 40.2439C19.8723 40.2439 20.3492 40.0512 20.7008 39.7081C21.0525 39.3651 21.25 38.8998 21.25 38.4146V20.122ZM30.625 18.2927C31.1223 18.2927 31.5992 18.4854 31.9508 18.8285C32.3025 19.1715 32.5 19.6368 32.5 20.122V38.4146C32.5 38.8998 32.3025 39.3651 31.9508 39.7081C31.5992 40.0512 31.1223 40.2439 30.625 40.2439C30.1277 40.2439 29.6508 40.0512 29.2992 39.7081C28.9475 39.3651 28.75 38.8998 28.75 38.4146V20.122C28.75 19.6368 28.9475 19.1715 29.2992 18.8285C29.6508 18.4854 30.1277 18.2927 30.625 18.2927ZM11.835 41.3829C11.9698 42.7406 12.6181 44.0006 13.6534 44.9173C14.6887 45.8341 16.0369 46.3418 17.435 46.3415H32.565C33.9631 46.3418 35.3113 45.8341 36.3466 44.9173C37.3819 44.0006 38.0302 42.7406 38.165 41.3829L41.06 12.1951H8.94L11.835 41.3829Z" fill="#1BDDBB"/>
</svg>
