<svg width="20" height="24" viewBox="0 0 20 24" fill="none" xmlns="http://www.w3.org/2000/svg">
<path d="M2 7.5V22.5C2 23.325 2.675 24 3.5 24H17C17.825 24 18.5 23.325 18.5 22.5V7.5H2ZM6.5 21H5V10.5H6.5V21ZM9.5 21H8V10.5H9.5V21ZM12.5 21H11V10.5H12.5V21ZM15.5 21H14V10.5H15.5V21ZM18.875 3H14V1.125C13.9988 0.826996 13.8799 0.541536 13.6692 0.330814C13.4585 0.120092 13.173 0.00118492 12.875 0L7.625 0C7.327 0.00118492 7.04154 0.120092 6.83081 0.330814C6.62009 0.541536 6.50118 0.826996 6.5 1.125V3H1.625C1.32687 3.00079 1.04119 3.11957 0.830379 3.33038C0.619572 3.54119 0.500792 3.82687 0.5 4.125V6H20V4.125C19.9992 3.82687 19.8804 3.54119 19.6696 3.33038C19.4588 3.11957 19.1731 3.00079 18.875 3ZM12.5 3H8V1.5195H12.5V3Z" fill="black"/>
</svg>
