<svg width="31" height="30" viewBox="0 0 31 30" fill="none" xmlns="http://www.w3.org/2000/svg">
<path d="M12.5 5.12195H18.5C18.5 4.34571 18.1839 3.60126 17.6213 3.05237C17.0587 2.50348 16.2956 2.19512 15.5 2.19512C14.7044 2.19512 13.9413 2.50348 13.3787 3.05237C12.8161 3.60126 12.5 4.34571 12.5 5.12195ZM10.25 5.12195C10.25 4.44933 10.3858 3.78329 10.6496 3.16187C10.9135 2.54044 11.3002 1.9758 11.7877 1.50018C12.2752 1.02457 12.854 0.647288 13.4909 0.389885C14.1279 0.132483 14.8106 0 15.5 0C16.1894 0 16.8721 0.132483 17.5091 0.389885C18.146 0.647288 18.7248 1.02457 19.2123 1.50018C19.6998 1.9758 20.0865 2.54044 20.3504 3.16187C20.6142 3.78329 20.75 4.44933 20.75 5.12195H29.375C29.6734 5.12195 29.9595 5.23759 30.1705 5.44342C30.3815 5.64925 30.5 5.92842 30.5 6.21951C30.5 6.5106 30.3815 6.78977 30.1705 6.99561C29.9595 7.20144 29.6734 7.31707 29.375 7.31707H27.395L25.64 25.0405C25.5054 26.3985 24.8571 27.6589 23.8215 28.5758C22.786 29.4928 21.4375 30.0005 20.039 30H10.961C9.5628 30.0002 8.21465 29.4923 7.17942 28.5754C6.1442 27.6584 5.4961 26.3983 5.3615 25.0405L3.605 7.31707H1.625C1.32663 7.31707 1.04048 7.20144 0.829505 6.99561C0.618526 6.78977 0.5 6.5106 0.5 6.21951C0.5 5.92842 0.618526 5.64925 0.829505 5.44342C1.04048 5.23759 1.32663 5.12195 1.625 5.12195H10.25ZM13.25 12.0732C13.25 11.7821 13.1315 11.5029 12.9205 11.2971C12.7095 11.0912 12.4234 10.9756 12.125 10.9756C11.8266 10.9756 11.5405 11.0912 11.3295 11.2971C11.1185 11.5029 11 11.7821 11 12.0732V23.0488C11 23.3399 11.1185 23.619 11.3295 23.8249C11.5405 24.0307 11.8266 24.1463 12.125 24.1463C12.4234 24.1463 12.7095 24.0307 12.9205 23.8249C13.1315 23.619 13.25 23.3399 13.25 23.0488V12.0732ZM18.875 10.9756C19.1734 10.9756 19.4595 11.0912 19.6705 11.2971C19.8815 11.5029 20 11.7821 20 12.0732V23.0488C20 23.3399 19.8815 23.619 19.6705 23.8249C19.4595 24.0307 19.1734 24.1463 18.875 24.1463C18.5766 24.1463 18.2905 24.0307 18.0795 23.8249C17.8685 23.619 17.75 23.3399 17.75 23.0488V12.0732C17.75 11.7821 17.8685 11.5029 18.0795 11.2971C18.2905 11.0912 18.5766 10.9756 18.875 10.9756ZM7.601 24.8298C7.68191 25.6444 8.07087 26.4004 8.69205 26.9504C9.31324 27.5004 10.1221 27.8051 10.961 27.8049H20.039C20.8779 27.8051 21.6868 27.5004 22.3079 26.9504C22.9291 26.4004 23.3181 25.6444 23.399 24.8298L25.136 7.31707H5.864L7.601 24.8298Z" fill="white"/>
</svg>
