<svg width="30" height="30" viewBox="0 0 30 30" fill="none" xmlns="http://www.w3.org/2000/svg">
<path d="M15.7062 7.99805H14.297C14.1681 7.99805 14.0627 8.10352 14.0627 8.23243V16.2979C14.0627 16.374 14.0978 16.4443 14.1593 16.4883L19.0021 20.0244C19.1076 20.1006 19.2541 20.0801 19.3302 19.9746L20.1681 18.832C20.2472 18.7236 20.2238 18.5772 20.1183 18.5039L15.9406 15.4834V8.23243C15.9406 8.10352 15.8351 7.99805 15.7062 7.99805ZM22.1457 10.2012L26.7394 11.3232C26.8859 11.3584 27.0295 11.2471 27.0295 11.0977L27.0529 6.36621C27.0529 6.16993 26.8273 6.0586 26.675 6.18164L22.0578 9.78809C22.0229 9.81508 21.9963 9.85138 21.9811 9.8928C21.9659 9.93423 21.9628 9.97909 21.9719 10.0222C21.9811 10.0654 22.0023 10.1051 22.033 10.1367C22.0638 10.1684 22.1028 10.1907 22.1457 10.2012ZM27.0588 19.0225L25.3976 18.4512C25.3397 18.4313 25.2763 18.4349 25.221 18.4612C25.1657 18.4875 25.1229 18.5344 25.1017 18.5918C25.0461 18.7412 24.9875 18.8877 24.9259 19.0342C24.4045 20.2676 23.6574 21.3779 22.7023 22.3301C21.7578 23.2775 20.6385 24.0326 19.4064 24.5537C18.13 25.0934 16.758 25.3704 15.3722 25.3682C13.9718 25.3682 12.6154 25.0957 11.3381 24.5537C10.1059 24.0326 8.98663 23.2775 8.04215 22.3301C7.09001 21.3779 6.34294 20.2676 5.81852 19.0342C5.28185 17.7571 5.00689 16.3853 5.00993 15C5.00993 13.5996 5.28239 12.2402 5.82438 10.9629C6.34587 9.7295 7.09294 8.61914 8.04801 7.667C8.99249 6.71959 10.1118 5.96443 11.3439 5.44336C12.6154 4.90137 13.9748 4.62891 15.3752 4.62891C16.7756 4.62891 18.132 4.90137 19.4093 5.44336C20.6415 5.96443 21.7608 6.71959 22.7052 7.667C23.0041 7.96875 23.2853 8.28223 23.5431 8.61329L25.2951 7.24219C22.9894 4.29493 19.4006 2.39942 15.3693 2.40235C8.34977 2.40528 2.71305 8.10645 2.78337 15.1289C2.85368 22.0283 8.46403 27.5977 15.3752 27.5977C20.8097 27.5977 25.4386 24.1523 27.2023 19.3272C27.2463 19.2041 27.1818 19.0664 27.0588 19.0225Z" fill="white"/>
</svg>
