<svg width="25" height="30" viewBox="0 0 25 30" fill="none" xmlns="http://www.w3.org/2000/svg">
<path d="M9.32292 10.75C9.32402 8.57895 10.0432 6.49719 11.3225 4.96203C12.6018 3.42686 14.3366 2.56382 16.1458 2.5625C19.8917 2.5625 22.9687 6.08625 22.9687 10.625C22.9676 12.7961 22.2484 14.8778 20.9691 16.413C19.6898 17.9481 17.955 18.8112 16.1458 18.8125C15.6002 18.8092 15.057 18.7236 14.5292 18.5575C14.5168 18.9614 14.3744 19.3439 14.132 19.6245C13.8896 19.9051 13.566 20.0621 13.2292 20.0625H11.4062V22.25C11.4062 23.1125 10.8229 23.8125 10.1042 23.8125H8.28125V25.375C8.28125 25.9552 8.08919 26.5116 7.74733 26.9218C7.40547 27.332 6.9418 27.5625 6.45833 27.5625H3.85417C3.3707 27.5625 2.90703 27.332 2.56517 26.9218C2.22331 26.5116 2.03125 25.9552 2.03125 25.375V22.66C2.03125 21.7475 2.33333 20.8738 2.87083 20.23L9.36458 12.435C9.39626 12.3949 9.41943 12.3463 9.43212 12.2932C9.44481 12.2401 9.44666 12.1841 9.4375 12.13C9.36602 11.6749 9.32768 11.2131 9.32292 10.75ZM19.0104 8.75C19.0104 8.3356 18.8732 7.93817 18.629 7.64515C18.3849 7.35212 18.0537 7.1875 17.7083 7.1875C17.363 7.1875 17.0318 7.35212 16.7876 7.64515C16.5434 7.93817 16.4062 8.3356 16.4062 8.75C16.4062 9.1644 16.5434 9.56183 16.7876 9.85485C17.0318 10.1479 17.363 10.3125 17.7083 10.3125C18.0537 10.3125 18.3849 10.1479 18.629 9.85485C18.8732 9.56183 19.0104 9.1644 19.0104 8.75Z" fill="white"/>
</svg>
