<svg width="26" height="30" viewBox="0 0 26 30" fill="none" xmlns="http://www.w3.org/2000/svg">
<path d="M23.918 10.983H23.24V7.71201C23.2395 7.69156 23.2375 7.67117 23.234 7.65101C23.2351 7.51945 23.1886 7.39194 23.103 7.29201L17.66 1.07501L17.656 1.07101C17.6234 1.0358 17.5864 1.00489 17.546 0.97901L17.51 0.957009C17.4754 0.937787 17.4389 0.922364 17.401 0.911009L17.371 0.90101C17.3295 0.890651 17.2868 0.88528 17.244 0.88501H3.867C3.256 0.88501 2.76 1.38201 2.76 1.99201V10.982H2.082C1.208 10.982 0.5 11.69 0.5 12.564V20.792C0.5 21.665 1.208 22.374 2.082 22.374H2.76V28.006C2.76 28.616 3.256 29.113 3.867 29.113H22.133C22.743 29.113 23.24 28.616 23.24 28.006V22.374H23.918C24.792 22.374 25.5 21.666 25.5 20.792V12.564C25.5 11.691 24.791 10.983 23.918 10.983ZM3.867 1.99301H16.69V7.65701C16.69 7.96301 16.938 8.21101 17.244 8.21101H22.134V10.984H3.867V1.99301ZM10.648 18.531V20.966H8.97V12.882H11.105L12.024 14.505L12.783 15.845C13.262 16.697 13.73 17.703 14.102 18.616H14.125C14.018 17.549 13.981 16.457 13.981 15.234V12.883H15.66V20.967H13.742L13.017 19.658L12.023 17.864L12.015 17.849C11.536 16.973 10.995 15.942 10.612 14.994H10.564C10.624 16.072 10.648 17.212 10.648 18.531ZM3.809 18.063V20.965H1.998V12.99C2.561 12.894 3.352 12.822 4.468 12.822C5.596 12.822 6.4 13.038 6.939 13.482C7.467 13.877 7.803 14.549 7.803 15.34C7.803 16.144 7.551 16.816 7.059 17.259C6.436 17.835 5.512 18.111 4.433 18.111C4.22391 18.1164 4.01481 18.1003 3.809 18.063ZM22.133 27.708H3.867V22.375H22.133V27.708ZM24.002 20.594C23.438 20.786 22.371 21.05 21.304 21.05C19.828 21.05 18.761 20.678 18.018 19.971C17.286 19.263 16.878 18.207 16.878 17.02C16.89 14.333 18.845 12.798 21.495 12.798C22.539 12.798 23.342 13.002 23.738 13.182L23.354 14.658C22.91 14.454 22.371 14.31 21.483 14.31C19.96 14.31 18.796 15.173 18.796 16.924C18.796 18.604 19.852 19.574 21.351 19.574C21.758 19.574 22.094 19.526 22.239 19.467V17.764H20.991V16.336H24.002V20.594Z" fill="black"/>
</svg>
