<svg width="50" height="50" viewBox="0 0 50 50" fill="none" xmlns="http://www.w3.org/2000/svg">
<path d="M24.9996 47.6111C25.8745 47.591 26.7141 47.2621 27.3698 46.6825C28.0256 46.103 28.4553 45.3102 28.5829 44.4445H21.2773C21.4086 45.3338 21.8583 46.1452 22.543 46.7277C23.2277 47.3102 24.1007 47.6241 24.9996 47.6111Z" fill="#1BDDBB"/>
<path d="M45.6252 39.0695L45.153 38.6528C43.8133 37.4592 42.6407 36.0904 41.6669 34.5834C40.6033 32.5036 39.9658 30.2323 39.7919 27.9028V21.0417C39.7862 20.2083 39.7119 19.3768 39.5697 18.5556C37.217 18.0721 35.1038 16.7904 33.5877 14.9275C32.0716 13.0647 31.2459 10.7352 31.2502 8.33339V7.45839C29.8001 6.74476 28.2421 6.27549 26.6391 6.0695V4.3195C26.6391 3.82774 26.4438 3.35613 26.096 3.00841C25.7483 2.66068 25.2767 2.46533 24.7849 2.46533C24.2932 2.46533 23.8216 2.66068 23.4738 3.00841C23.1261 3.35613 22.9308 3.82774 22.9308 4.3195V6.13894C19.3415 6.64527 16.0566 8.43303 13.6825 11.1722C11.3084 13.9113 10.0054 17.4169 10.0141 21.0417V27.9028C9.84015 30.2323 9.20269 32.5036 8.13911 34.5834C7.182 36.0867 6.02827 37.4552 4.70855 38.6528L4.23633 39.0695V42.9862H45.6252V39.0695Z" fill="#1BDDBB"/>
<path d="M37 23C44.1797 23 50 17.8513 50 11.5C50 5.14873 44.1797 0 37 0C29.8203 0 24 5.14873 24 11.5C24 17.8513 29.8203 23 37 23Z" fill="#4019AF"/>
<path d="M40.2409 8.704H35.2489V10.912C35.4622 10.6773 35.7609 10.4853 36.1449 10.336C36.5289 10.1867 36.9449 10.112 37.3929 10.112C38.1929 10.112 38.8542 10.2933 39.3769 10.656C39.9102 11.0187 40.2995 11.488 40.5449 12.064C40.7902 12.64 40.9129 13.264 40.9129 13.936C40.9129 15.184 40.5609 16.176 39.8569 16.912C39.1529 17.6373 38.1609 18 36.8809 18C36.0275 18 35.2862 17.856 34.6569 17.568C34.0275 17.2693 33.5422 16.8587 33.2009 16.336C32.8595 15.8133 32.6729 15.2107 32.6409 14.528H35.3129C35.3769 14.8587 35.5315 15.136 35.7769 15.36C36.0222 15.5733 36.3582 15.68 36.7849 15.68C37.2862 15.68 37.6595 15.52 37.9049 15.2C38.1502 14.88 38.2729 14.4533 38.2729 13.92C38.2729 13.3973 38.1449 12.9973 37.8889 12.72C37.6329 12.4427 37.2595 12.304 36.7689 12.304C36.4062 12.304 36.1075 12.3947 35.8729 12.576C35.6382 12.7467 35.4835 12.976 35.4089 13.264H32.7689V6.304H40.2409V8.704Z" fill="white"/>
</svg>
