<svg width="25" height="29" viewBox="0 0 25 29" fill="none" xmlns="http://www.w3.org/2000/svg">
<path d="M6.60502 14.464C6.60502 13.704 6.07702 13.25 5.14602 13.25C4.76602 13.25 4.50902 13.287 4.37402 13.323V15.764C4.53402 15.8 4.73002 15.813 4.99902 15.813C5.99202 15.813 6.60502 15.31 6.60502 14.464ZM12.371 13.274C11.954 13.274 11.684 13.311 11.524 13.348V18.756C11.684 18.793 11.941 18.793 12.174 18.793C13.866 18.805 14.97 17.873 14.97 15.899C14.983 14.182 13.977 13.274 12.371 13.274Z" fill="black"/>
<path d="M23.418 10.097H22.74V6.826C22.7394 6.80522 22.7374 6.7845 22.734 6.764C22.7351 6.63244 22.6886 6.50493 22.603 6.405L17.16 0.189L17.156 0.185C17.0869 0.109991 16.9988 0.0550549 16.901 0.026L16.871 0.0159998C16.8295 0.0056408 16.7868 0.000269809 16.744 0H3.367C2.756 0 2.26 0.497 2.26 1.107V10.097H1.582C0.708 10.097 0 10.805 0 11.679V19.907C0 20.78 0.709 21.489 1.582 21.489H2.26V27.122C2.26 27.732 2.756 28.229 3.367 28.229H21.633C22.243 28.229 22.74 27.732 22.74 27.122V21.489H23.418C24.292 21.489 25 20.78 25 19.907V11.679C25 10.805 24.291 10.097 23.418 10.097ZM3.367 1.107H16.19V6.771C16.19 7.077 16.438 7.324 16.744 7.324H21.634V10.097H3.367V1.107ZM16.957 15.837C16.957 17.419 16.381 18.511 15.582 19.185C14.712 19.908 13.388 20.252 11.769 20.252C10.8 20.252 10.114 20.19 9.647 20.13V12.011C10.334 11.901 11.229 11.84 12.174 11.84C13.743 11.84 14.761 12.122 15.558 12.723C16.417 13.36 16.957 14.378 16.957 15.837ZM2.521 20.167V12.011C3.097 11.913 3.907 11.84 5.047 11.84C6.2 11.84 7.022 12.061 7.573 12.502C8.1 12.919 8.455 13.606 8.455 14.415C8.455 15.225 8.186 15.911 7.695 16.377C7.057 16.978 6.113 17.248 5.009 17.248C4.764 17.248 4.543 17.236 4.372 17.211V20.167H2.521ZM21.633 26.822H3.367V21.489H21.633V26.822ZM23.237 13.434H20.06V15.323H23.028V16.844H20.06V20.167H18.185V11.901H23.237V13.434Z" fill="black"/>
</svg>
