<svg width="30" height="35" viewBox="0 0 30 35" fill="none" xmlns="http://www.w3.org/2000/svg">
<g clip-path="url(#clip0_675_202)">
<path d="M20.6739 17.1177L20.6595 17.1618C20.664 17.1485 20.6676 17.1348 20.6721 17.1215L20.6739 17.1177ZM19.1544 25.6738L18.7395 26.2723C19.3005 26.3514 19.8435 26.4441 20.352 26.5565L18.7083 27.1245L20.9022 27.8053L22.5375 27.2036C23.5419 27.5967 24.9327 28.0772 25.3935 28.6236H22.1145L22.4403 29.7352H25.8429C25.8327 30.3617 24.8727 30.8706 23.9559 31.2829L21.6306 30.6963L19.4397 31.6122L21.7797 32.2352C20.4135 32.6692 18.1197 32.9331 16.2207 33.0546L16.1409 31.7806H13.8591L13.779 33.0546C11.88 32.9331 9.58647 32.6696 8.21997 32.2356L10.5603 31.6122L8.36937 30.6963L6.04377 31.2829C5.14017 30.9626 4.16727 30.3617 4.15707 29.7352H7.55997L7.88577 28.6236H4.60677C5.06757 28.0772 6.45837 27.5967 7.46277 27.2036L9.09807 27.8053L11.292 27.1245L9.64827 26.5565C10.1791 26.442 10.713 26.3478 11.2491 26.274L10.8402 25.6745C6.40467 26.2124 2.71827 27.358 1.75167 29.1671C0.209973 32.0504 5.89737 34.9509 14.811 34.996C14.9436 35.0037 15.0744 34.9981 15.198 34.996C24.1065 34.9484 29.7888 32.049 28.2483 29.1671C27.2811 27.3573 23.5923 26.2114 19.1541 25.6738H19.1544Z" fill="white"/>
<path d="M14.9568 -0.000400676C14.129 0.0129385 13.3389 0.406006 12.7575 1.09376C12.1762 1.78152 11.8503 2.70866 11.8503 3.6746C11.8503 4.64927 12.1822 5.58402 12.773 6.27322C13.3637 6.96241 14.1649 7.3496 15.0003 7.3496C15.8358 7.3496 16.637 6.96241 17.2277 6.27322C17.8185 5.58402 18.1503 4.64927 18.1503 3.6746C18.1503 2.69993 17.8185 1.76518 17.2277 1.07598C16.637 0.386786 15.8358 -0.000400676 15.0003 -0.000400676C14.9858 -0.000517483 14.9713 -0.000517483 14.9568 -0.000400676ZM14.9397 8.2568C12.5895 8.2575 10.2609 9.4356 10.5057 11.7904L11.1057 16.9091C11.211 17.8097 11.7327 19.2496 12.5118 19.2496H12.5673L13.2054 27.8354C13.233 28.2222 13.473 28.5354 13.8054 28.5354H16.2054C16.5378 28.5354 16.7778 28.2222 16.8054 27.8354L17.4435 19.2499H17.4993C18.2784 19.2499 18.7998 17.8097 18.9054 16.9091L19.5054 11.7904C19.6626 9.4335 17.2902 8.25645 14.9397 8.2568ZM-47.7747 21.6355L-47.7891 21.6796C-47.7843 21.6663 -47.781 21.653 -47.7762 21.6394C-47.7762 21.638 -47.775 21.6369 -47.7744 21.6359L-47.7747 21.6355Z" fill="white"/>
</g>
<defs>
<clipPath id="clip0_675_202">
<rect width="30" height="35" fill="white"/>
</clipPath>
</defs>
</svg>
