<svg width="34" height="20" viewBox="0 0 34 20" fill="none" xmlns="http://www.w3.org/2000/svg">
<path d="M30.25 6.83333H17.725C17.1071 4.9816 15.96 3.3779 14.442 2.24351C12.924 1.10911 11.1099 0.499927 9.25 0.5C4.285 0.5 0.25 4.75917 0.25 10C0.25 15.2408 4.285 19.5 9.25 19.5C11.1099 19.5001 12.924 18.8909 14.442 17.7565C15.96 16.6221 17.1071 15.0184 17.725 13.1667H18.25L21.25 16.3333L24.25 13.1667L27.25 16.3333L33.25 9.93667L30.25 6.83333ZM9.25 14.75C6.775 14.75 4.75 12.6125 4.75 10C4.75 7.3875 6.775 5.25 9.25 5.25C11.725 5.25 13.75 7.3875 13.75 10C13.75 12.6125 11.725 14.75 9.25 14.75Z" fill="white"/>
</svg>
