<svg width="18" height="21" viewBox="0 0 18 21" fill="none" xmlns="http://www.w3.org/2000/svg">
<path d="M10.6001 1.77702C11.2684 1.04051 12.202 0.599668 13.1954 0.551476C14.1888 0.503285 15.1606 0.851692 15.8971 1.52005C16.6336 2.18841 17.0745 3.12197 17.1227 4.11537C17.1709 5.10876 16.8225 6.08061 16.1541 6.81712L7.08193 16.8144C6.68091 17.2563 6.12077 17.5208 5.52474 17.5497C4.9287 17.5786 4.34559 17.3696 3.90368 16.9686C3.46178 16.5676 3.19727 16.0074 3.16836 15.4114C3.13944 14.8154 3.34849 14.2322 3.7495 13.7903L10.8056 6.01468C10.9393 5.86738 11.126 5.77921 11.3247 5.76957C11.5234 5.75993 11.7178 5.82961 11.8651 5.96328C12.0124 6.09696 12.1005 6.28367 12.1102 6.48235C12.1198 6.68103 12.0501 6.8754 11.9165 7.0227L4.86031 14.7984C4.72664 14.9457 4.65696 15.14 4.66659 15.3387C4.67623 15.5374 4.7644 15.7241 4.9117 15.8578C5.05901 15.9914 5.25338 16.0611 5.45205 16.0515C5.65073 16.0418 5.83745 15.9537 5.97112 15.8064L15.0433 5.8091C15.2419 5.59029 15.3954 5.33451 15.4951 5.05637C15.5948 4.77823 15.6388 4.48318 15.6244 4.18805C15.6101 3.89292 15.5378 3.6035 15.4117 3.33632C15.2855 3.06914 15.1079 2.82942 14.8891 2.63086C14.6703 2.4323 14.4145 2.27878 14.1364 2.17906C13.8582 2.07935 13.5632 2.0354 13.2681 2.04971C12.9729 2.06403 12.6835 2.13634 12.4163 2.26251C12.1492 2.38867 11.9094 2.56623 11.7109 2.78504L2.63869 12.7823C1.97033 13.5188 1.62193 14.4907 1.67012 15.4841C1.71831 16.4775 2.15915 17.411 2.89566 18.0794C3.63217 18.7477 4.60402 19.0962 5.59742 19.048C6.59081 18.9998 7.52437 18.5589 8.19273 17.8224L15.2489 10.0468C15.3825 9.89946 15.5693 9.81129 15.7679 9.80165C15.9666 9.79201 16.161 9.86169 16.3083 9.99537C16.4556 10.129 16.5438 10.3158 16.5534 10.5144C16.563 10.7131 16.4934 10.9075 16.3597 11.0548L9.30354 18.8304C8.36784 19.8616 7.06085 20.4787 5.6701 20.5462C4.27935 20.6137 2.91876 20.1259 1.88764 19.1902C0.856526 18.2545 0.239348 16.9475 0.17188 15.5568C0.104412 14.166 0.592181 12.8054 1.52788 11.7743L10.6001 1.77702Z" fill="black"/>
</svg>
