<svg width="25" height="25" viewBox="0 0 25 25" fill="none" xmlns="http://www.w3.org/2000/svg">
<path d="M5.20833 21.8751C4.63542 21.8751 4.14479 21.6713 3.73646 21.2636C3.32882 20.8553 3.125 20.3647 3.125 19.7917V5.20842C3.125 4.6355 3.32882 4.14487 3.73646 3.73654C4.14479 3.3289 4.63542 3.12508 5.20833 3.12508H9.55729C9.74826 2.51744 10.1215 2.01814 10.6771 1.62716C11.2326 1.23689 11.8403 1.04175 12.5 1.04175C13.1944 1.04175 13.8153 1.23689 14.3625 1.62716C14.909 2.01814 15.2778 2.51744 15.4688 3.12508H19.7917C20.3646 3.12508 20.8552 3.3289 21.2635 3.73654C21.6712 4.14487 21.875 4.6355 21.875 5.20842V11.4584H19.7917V5.20842H17.7083V6.25008C17.7083 6.823 17.5045 7.31328 17.0969 7.72092C16.6885 8.12925 16.1979 8.33342 15.625 8.33342H9.375C8.80208 8.33342 8.31181 8.12925 7.90417 7.72092C7.49583 7.31328 7.29167 6.823 7.29167 6.25008V5.20842H5.20833V19.7917H10.4167V21.8751H5.20833ZM18.0208 21.1199C17.8299 20.9115 17.7302 20.6685 17.7219 20.3907C17.7128 20.1129 17.8125 19.8699 18.0208 19.6615L18.9323 18.7501H13.5417C13.2465 18.7501 12.9993 18.6501 12.8 18.4501C12.6 18.2508 12.5 18.0036 12.5 17.7084C12.5 17.4133 12.6 17.1661 12.8 16.9667C12.9993 16.7667 13.2465 16.6667 13.5417 16.6667H18.9323L17.9948 15.7292C17.8038 15.5383 17.7083 15.2994 17.7083 15.0126C17.7083 14.7265 17.8125 14.4792 18.0208 14.2709C18.2118 14.0799 18.4549 13.9845 18.75 13.9845C19.0451 13.9845 19.2882 14.0799 19.4792 14.2709L22.1875 16.9792C22.2917 17.0834 22.3656 17.1963 22.4094 17.3178C22.4524 17.4393 22.474 17.5695 22.474 17.7084C22.474 17.8473 22.4524 17.9775 22.4094 18.099C22.3656 18.2206 22.2917 18.3334 22.1875 18.4376L19.4792 21.1459C19.2708 21.3542 19.0278 21.4539 18.75 21.4449C18.4722 21.4365 18.2292 21.3282 18.0208 21.1199ZM12.5 5.20842C12.7951 5.20842 13.0427 5.10842 13.2427 4.90841C13.442 4.70911 13.5417 4.46189 13.5417 4.16675C13.5417 3.87161 13.442 3.62404 13.2427 3.42404C13.0427 3.22473 12.7951 3.12508 12.5 3.12508C12.2049 3.12508 11.9576 3.22473 11.7583 3.42404C11.5583 3.62404 11.4583 3.87161 11.4583 4.16675C11.4583 4.46189 11.5583 4.70911 11.7583 4.90841C11.9576 5.10842 12.2049 5.20842 12.5 5.20842Z" fill="black"/>
</svg>
