<svg width="20" height="21" viewBox="0 0 20 21" fill="none" xmlns="http://www.w3.org/2000/svg">
<path d="M2.20833 20.8751C1.63542 20.8751 1.14479 20.6713 0.736458 20.2636C0.328819 19.8553 0.125 19.3647 0.125 18.7917V4.20842C0.125 3.6355 0.328819 3.14487 0.736458 2.73654C1.14479 2.3289 1.63542 2.12508 2.20833 2.12508H6.55729C6.74826 1.51744 7.12153 1.01814 7.67708 0.627165C8.23264 0.236887 8.84028 0.041748 9.5 0.041748C10.1944 0.041748 10.8153 0.236887 11.3625 0.627165C11.909 1.01814 12.2778 1.51744 12.4688 2.12508H16.7917C17.3646 2.12508 17.8552 2.3289 18.2635 2.73654C18.6712 3.14487 18.875 3.6355 18.875 4.20842V10.4584H16.7917V4.20842H14.7083V5.25008C14.7083 5.823 14.5045 6.31328 14.0969 6.72092C13.6885 7.12925 13.1979 7.33342 12.625 7.33342H6.375C5.80208 7.33342 5.31181 7.12925 4.90417 6.72092C4.49583 6.31328 4.29167 5.823 4.29167 5.25008V4.20842H2.20833V18.7917H7.41667V20.8751H2.20833ZM15.0208 20.1199C14.8299 19.9115 14.7302 19.6685 14.7219 19.3907C14.7128 19.1129 14.8125 18.8699 15.0208 18.6615L15.9323 17.7501H10.5417C10.2465 17.7501 9.99931 17.6501 9.8 17.4501C9.6 17.2508 9.5 17.0036 9.5 16.7084C9.5 16.4133 9.6 16.1661 9.8 15.9667C9.99931 15.7667 10.2465 15.6667 10.5417 15.6667H15.9323L14.9948 14.7292C14.8038 14.5383 14.7083 14.2994 14.7083 14.0126C14.7083 13.7265 14.8125 13.4792 15.0208 13.2709C15.2118 13.0799 15.4549 12.9845 15.75 12.9845C16.0451 12.9845 16.2882 13.0799 16.4792 13.2709L19.1875 15.9792C19.2917 16.0834 19.3656 16.1963 19.4094 16.3178C19.4524 16.4393 19.474 16.5695 19.474 16.7084C19.474 16.8473 19.4524 16.9775 19.4094 17.099C19.3656 17.2206 19.2917 17.3334 19.1875 17.4376L16.4792 20.1459C16.2708 20.3542 16.0278 20.4539 15.75 20.4449C15.4722 20.4365 15.2292 20.3282 15.0208 20.1199ZM9.5 4.20842C9.79514 4.20842 10.0427 4.10842 10.2427 3.90841C10.442 3.70911 10.5417 3.46189 10.5417 3.16675C10.5417 2.87161 10.442 2.62404 10.2427 2.42404C10.0427 2.22473 9.79514 2.12508 9.5 2.12508C9.20486 2.12508 8.95764 2.22473 8.75833 2.42404C8.55833 2.62404 8.45833 2.87161 8.45833 3.16675C8.45833 3.46189 8.55833 3.70911 8.75833 3.90841C8.95764 4.10842 9.20486 4.20842 9.5 4.20842Z" fill="black"/>
</svg>
