<svg width="20" height="25" viewBox="0 0 20 25" fill="none" xmlns="http://www.w3.org/2000/svg">
<path d="M20 20.6868C20 21.8696 19.6745 22.8841 19.0234 23.7305C18.3724 24.5768 17.5885 25 16.6719 25H3.32812C2.41146 25 1.6276 24.5768 0.976562 23.7305C0.325521 22.8841 0 21.8696 0 20.6868C0 19.7645 0.0442708 18.8938 0.132812 18.0745C0.221354 17.2553 0.385417 16.4307 0.625 15.6006C0.864583 14.7705 1.16927 14.0598 1.53906 13.4684C1.90885 12.8771 2.39844 12.3942 3.00781 12.0199C3.61719 11.6455 4.31771 11.4583 5.10938 11.4583C6.47396 12.8472 8.10417 13.5417 10 13.5417C11.8958 13.5417 13.526 12.8472 14.8906 11.4583C15.6823 11.4583 16.3828 11.6455 16.9922 12.0199C17.6016 12.3942 18.0911 12.8771 18.4609 13.4684C18.8307 14.0598 19.1354 14.7705 19.375 15.6006C19.6146 16.4307 19.7786 17.2553 19.8672 18.0745C19.9557 18.8938 20 19.7645 20 20.6868ZM16 6.25C16 7.97526 15.4141 9.44824 14.2422 10.6689C13.0703 11.8896 11.6562 12.5 10 12.5C8.34375 12.5 6.92969 11.8896 5.75781 10.6689C4.58594 9.44824 4 7.97526 4 6.25C4 4.52474 4.58594 3.05176 5.75781 1.83105C6.92969 0.610352 8.34375 0 10 0C11.6562 0 13.0703 0.610352 14.2422 1.83105C15.4141 3.05176 16 4.52474 16 6.25Z" fill="white"/>
</svg>
