<svg width="40" height="40" viewBox="0 0 40 40" fill="none" xmlns="http://www.w3.org/2000/svg">
<path d="M20 38.089C20.6999 38.0729 21.3716 37.8097 21.8962 37.3461C22.4208 36.8825 22.7646 36.2483 22.8667 35.5557H17.0222C17.1272 36.2671 17.487 36.9162 18.0348 37.3822C18.5825 37.8482 19.2809 38.0994 20 38.089Z" fill="white"/>
<path d="M36.5 31.256L36.1222 30.9227C35.0505 29.9678 34.1124 28.8727 33.3334 27.6671C32.4825 26.0033 31.9725 24.1862 31.8334 22.3227V16.8338C31.8288 16.167 31.7694 15.5018 31.6556 14.8449C29.7735 14.458 28.0829 13.4327 26.87 11.9424C25.6572 10.4521 24.9966 8.58854 25 6.6671V5.9671C23.8399 5.3962 22.5935 5.02078 21.3111 4.85599V3.45599C21.3111 3.06259 21.1549 2.68529 20.8767 2.40711C20.5985 2.12894 20.2212 1.97266 19.8278 1.97266C19.4344 1.97266 19.0571 2.12894 18.7789 2.40711C18.5008 2.68529 18.3445 3.06259 18.3445 3.45599V4.91155C15.473 5.3166 12.8451 6.74682 10.9458 8.93814C9.04655 11.1295 8.00417 13.9339 8.01114 16.8338V22.3227C7.87198 24.1862 7.362 26.0033 6.51114 27.6671C5.74545 28.8697 4.82247 29.9646 3.76669 30.9227L3.38892 31.256V34.3893H36.5V31.256Z" fill="white"/>
<path d="M33.3334 12.2224C36.4016 12.2224 38.8889 9.73513 38.8889 6.66688C38.8889 3.59863 36.4016 1.11133 33.3334 1.11133C30.2651 1.11133 27.7778 3.59863 27.7778 6.66688C27.7778 9.73513 30.2651 12.2224 33.3334 12.2224Z" fill="white"/>
</svg>
