<svg width="25" height="30" viewBox="0 0 25 30" fill="none" xmlns="http://www.w3.org/2000/svg">
<g clip-path="url(#clip0_1_21)">
<path d="M18.3335 22H16.6668V20H18.3335V22ZM13.3335 22H15.0002V20H13.3335V22ZM21.6668 22H20.0002V20H21.6668V22Z" fill="white"/>
<path fill-rule="evenodd" clip-rule="evenodd" d="M5 12V7C5 6.08075 5.15088 5.1705 5.44404 4.32122C5.73719 3.47194 6.16687 2.70026 6.70854 2.05025C7.25022 1.40024 7.89328 0.884626 8.60101 0.532843C9.30875 0.18106 10.0673 0 10.8333 0C11.5994 0 12.3579 0.18106 13.0657 0.532843C13.7734 0.884626 14.4164 1.40024 14.9581 2.05025C15.4998 2.70026 15.9295 3.47194 16.2226 4.32122C16.5158 5.1705 16.6667 6.08075 16.6667 7V12H19.1667C19.8297 12 20.4656 12.3161 20.9344 12.8787C21.4033 13.4413 21.6667 14.2044 21.6667 15V16.1C22.6086 16.3295 23.4554 16.9427 24.0636 17.8357C24.6719 18.7288 25.0042 19.8466 25.0042 21C25.0042 22.1534 24.6719 23.2712 24.0636 24.1643C23.4554 25.0573 22.6086 25.6705 21.6667 25.9V27C21.6667 27.7956 21.4033 28.5587 20.9344 29.1213C20.4656 29.6839 19.8297 30 19.1667 30H2.5C1.83696 30 1.20107 29.6839 0.732233 29.1213C0.263392 28.5587 0 27.7956 0 27L0 15C0 14.2044 0.263392 13.4413 0.732233 12.8787C1.20107 12.3161 1.83696 12 2.5 12H5ZM6.66667 7C6.66667 5.67392 7.10565 4.40215 7.88705 3.46447C8.66846 2.52678 9.72826 2 10.8333 2C11.9384 2 12.9982 2.52678 13.7796 3.46447C14.561 4.40215 15 5.67392 15 7V12H6.66667V7ZM14.1667 18C13.5036 18 12.8677 18.3161 12.3989 18.8787C11.9301 19.4413 11.6667 20.2044 11.6667 21C11.6667 21.7956 11.9301 22.5587 12.3989 23.1213C12.8677 23.6839 13.5036 24 14.1667 24H20.8333C21.4964 24 22.1323 23.6839 22.6011 23.1213C23.0699 22.5587 23.3333 21.7956 23.3333 21C23.3333 20.2044 23.0699 19.4413 22.6011 18.8787C22.1323 18.3161 21.4964 18 20.8333 18H14.1667Z" fill="white"/>
</g>
<defs>
<clipPath id="clip0_1_21">
<rect width="25" height="30" fill="white"/>
</clipPath>
</defs>
</svg>
