<svg width="40" height="40" viewBox="0 0 40 40" fill="none" xmlns="http://www.w3.org/2000/svg">
<path d="M20.9413 10.6641H19.0624C18.8905 10.6641 18.7499 10.8047 18.7499 10.9766V21.7305C18.7499 21.832 18.7968 21.9258 18.8788 21.9844L25.3358 26.6992C25.4765 26.8008 25.6718 26.7734 25.7733 26.6328L26.8905 25.1094C26.996 24.9648 26.9647 24.7695 26.8241 24.6719L21.2538 20.6445V10.9766C21.2538 10.8047 21.1132 10.6641 20.9413 10.6641ZM29.5272 13.6016L35.6522 15.0977C35.8475 15.1445 36.039 14.9961 36.039 14.7969L36.0702 8.48829C36.0702 8.22657 35.7694 8.07813 35.5663 8.24219L29.41 13.0508C29.3635 13.0868 29.3281 13.1352 29.3078 13.1904C29.2876 13.2456 29.2834 13.3055 29.2956 13.363C29.3078 13.4205 29.3361 13.4734 29.3771 13.5156C29.418 13.5579 29.4701 13.5876 29.5272 13.6016ZM36.078 25.3633L33.8632 24.6016C33.786 24.5751 33.7014 24.5799 33.6277 24.6149C33.554 24.65 33.4969 24.7125 33.4686 24.7891C33.3944 24.9883 33.3163 25.1836 33.2343 25.3789C32.539 27.0234 31.5429 28.5039 30.2694 29.7734C29.0101 31.0366 27.5177 32.0435 25.8749 32.7383C24.173 33.4578 22.3437 33.8271 20.496 33.8242C18.6288 33.8242 16.8202 33.4609 15.1171 32.7383C13.4743 32.0435 11.9818 31.0366 10.7225 29.7734C9.45302 28.5039 8.45692 27.0234 7.7577 25.3789C7.04214 23.6761 6.67553 21.847 6.67958 20C6.67958 18.1328 7.04286 16.3203 7.76552 14.6172C8.46083 12.9727 9.45692 11.4922 10.7304 10.2227C11.9897 8.95946 13.4821 7.95257 15.1249 7.25782C16.8202 6.53516 18.6327 6.17188 20.4999 6.17188C22.3671 6.17188 24.1757 6.53516 25.8788 7.25782C27.5216 7.95257 29.014 8.95946 30.2733 10.2227C30.6718 10.625 31.0468 11.043 31.3905 11.4844L33.7265 9.65625C30.6522 5.72657 25.8671 3.19922 20.4921 3.20313C11.1327 3.20704 3.61708 10.8086 3.71083 20.1719C3.80458 29.3711 11.285 36.7969 20.4999 36.7969C27.746 36.7969 33.9179 32.2031 36.2694 25.7695C36.328 25.6055 36.2421 25.4219 36.078 25.3633Z" fill="white"/>
</svg>
