<svg width="48" height="48" viewBox="0 0 48 48" fill="none" xmlns="http://www.w3.org/2000/svg">
<g filter="url(#filter0_d_3336_1825)">
<circle cx="20" cy="24" r="20" fill="#1BDDBB" fill-opacity="0.6" shape-rendering="crispEdges"/>
</g>
<path d="M15 26H25C25.2833 26 25.5207 25.904 25.712 25.712C25.904 25.5207 26 25.2833 26 25C26 24.7167 25.904 24.479 25.712 24.287C25.5207 24.0957 25.2833 24 25 24H15C14.7167 24 14.479 24.0957 14.287 24.287C14.0957 24.479 14 24.7167 14 25C14 25.2833 14.0957 25.5207 14.287 25.712C14.479 25.904 14.7167 26 15 26ZM15 23H25C25.2833 23 25.5207 22.904 25.712 22.712C25.904 22.5207 26 22.2833 26 22C26 21.7167 25.904 21.479 25.712 21.287C25.5207 21.0957 25.2833 21 25 21H15C14.7167 21 14.479 21.0957 14.287 21.287C14.0957 21.479 14 21.7167 14 22C14 22.2833 14.0957 22.5207 14.287 22.712C14.479 22.904 14.7167 23 15 23ZM15 20H25C25.2833 20 25.5207 19.9043 25.712 19.713C25.904 19.521 26 19.2833 26 19C26 18.7167 25.904 18.479 25.712 18.287C25.5207 18.0957 25.2833 18 25 18H15C14.7167 18 14.479 18.0957 14.287 18.287C14.0957 18.479 14 18.7167 14 19C14 19.2833 14.0957 19.521 14.287 19.713C14.479 19.9043 14.7167 20 15 20ZM28.3 32.3L26 30H12C11.45 30 10.9793 29.8043 10.588 29.413C10.196 29.021 10 28.55 10 28V16C10 15.45 10.196 14.979 10.588 14.587C10.9793 14.1957 11.45 14 12 14H28C28.55 14 29.021 14.1957 29.413 14.587C29.8043 14.979 30 15.45 30 16V31.575C30 32.025 29.796 32.3373 29.388 32.512C28.9793 32.6873 28.6167 32.6167 28.3 32.3ZM12 16V28H26.825L28 29.175V16H12ZM12 16V29.175V16Z" fill="black"/>
<defs>
<filter id="filter0_d_3336_1825" x="0" y="0" width="48" height="48" filterUnits="userSpaceOnUse" color-interpolation-filters="sRGB">
<feFlood flood-opacity="0" result="BackgroundImageFix"/>
<feColorMatrix in="SourceAlpha" type="matrix" values="0 0 0 0 0 0 0 0 0 0 0 0 0 0 0 0 0 0 127 0" result="hardAlpha"/>
<feOffset dx="4"/>
<feGaussianBlur stdDeviation="2"/>
<feComposite in2="hardAlpha" operator="out"/>
<feColorMatrix type="matrix" values="0 0 0 0 0 0 0 0 0 0 0 0 0 0 0 0 0 0 0.25 0"/>
<feBlend mode="normal" in2="BackgroundImageFix" result="effect1_dropShadow_3336_1825"/>
<feBlend mode="normal" in="SourceGraphic" in2="effect1_dropShadow_3336_1825" result="shape"/>
</filter>
</defs>
</svg>
