<svg width="33" height="32" viewBox="0 0 33 32" fill="none" xmlns="http://www.w3.org/2000/svg">
<path d="M15.6368 29.421H4.90789C4.07037 29.421 3.26715 29.0883 2.67493 28.4961C2.08271 27.9038 1.75 27.1006 1.75 26.2631V7.31573C1.75 6.47821 2.08271 5.67498 2.67493 5.08276C3.26715 4.49054 4.07037 4.15784 4.90789 4.15784H23.8553C24.6928 4.15784 25.496 4.49054 26.0882 5.08276C26.6805 5.67498 27.0132 6.47821 27.0132 7.31573V13.6315" stroke="white" stroke-width="2" stroke-linecap="round" stroke-linejoin="round"/>
<path d="M25.434 31C28.9221 31 31.7497 28.1723 31.7497 24.6842C31.7497 21.1961 28.9221 18.3684 25.434 18.3684C21.9458 18.3684 19.1182 21.1961 19.1182 24.6842C19.1182 28.1723 21.9458 31 25.434 31Z" stroke="white" stroke-width="2" stroke-linecap="round" stroke-linejoin="round"/>
<path d="M20.6974 1V7.31579M8.06579 1V7.31579M1.75 13.6316H27.0132M25.4342 22.3095V24.6842L27.0132 26.2632" stroke="white" stroke-width="2" stroke-linecap="round" stroke-linejoin="round"/>
</svg>
