<svg width="50" height="50" viewBox="0 0 50 50" fill="none" xmlns="http://www.w3.org/2000/svg">
<path d="M24.5729 43.75H10.4167C9.3116 43.75 8.25179 43.311 7.47039 42.5296C6.68899 41.7482 6.25 40.6884 6.25 39.5834V14.5834C6.25 13.4783 6.68899 12.4185 7.47039 11.6371C8.25179 10.8557 9.3116 10.4167 10.4167 10.4167H35.4167C36.5217 10.4167 37.5815 10.8557 38.3629 11.6371C39.1443 12.4185 39.5833 13.4783 39.5833 14.5834V22.9167" stroke="#1BDDBB" stroke-width="2" stroke-linecap="round" stroke-linejoin="round"/>
<path d="M37.4998 45.8334C42.1022 45.8334 45.8332 42.1024 45.8332 37.5C45.8332 32.8976 42.1022 29.1667 37.4998 29.1667C32.8975 29.1667 29.1665 32.8976 29.1665 37.5C29.1665 42.1024 32.8975 45.8334 37.4998 45.8334Z" stroke="#1BDDBB" stroke-width="2" stroke-linecap="round" stroke-linejoin="round"/>
<path d="M31.25 6.25V14.5833M14.5833 6.25V14.5833M6.25 22.9167H39.5833M37.5 34.3667V37.5L39.5833 39.5833" stroke="#1BDDBB" stroke-width="2" stroke-linecap="round" stroke-linejoin="round"/>
</svg>
