<svg width="30" height="30" viewBox="0 0 30 30" fill="none" xmlns="http://www.w3.org/2000/svg">
<path d="M29.7046 25.0879C25.304 17.0488 20.9015 9.00972 16.4999 0.970662C16.3532 0.692448 16.1332 0.459567 15.8639 0.297122C15.5945 0.134677 15.2859 0.0488281 14.9713 0.0488281C14.6568 0.0488281 14.3482 0.134677 14.0788 0.297122C13.8095 0.459567 13.5895 0.692448 13.4427 0.970662C9.04165 9.00972 4.63681 17.0488 0.238062 25.0879C-0.443032 26.3296 0.425093 27.9393 1.76525 27.9393H28.1793C28.9218 27.9393 29.4206 27.5394 29.6807 26.9971C30.0079 26.4805 30.0956 25.7947 29.7065 25.0869" fill="#FFDD15"/>
<path d="M13.555 16.1606L13.1383 9.94406C13.0604 8.73328 13.0229 7.86328 13.0229 7.33547C13.0229 6.61641 13.2104 6.05719 13.5864 5.65359C13.9637 5.25234 14.4597 5.05078 15.0747 5.05078C15.8167 5.05078 16.315 5.30906 16.5644 5.82234C16.8161 6.33891 16.9436 7.08047 16.9436 8.04938C16.9436 8.61891 16.9126 9.19922 16.8508 9.7875L16.2929 16.1855C16.2325 16.9477 16.1036 17.5317 15.9053 17.9381C15.7056 18.3464 15.3765 18.548 14.9167 18.548C14.4517 18.548 14.1245 18.3516 13.9454 17.9587C13.7612 17.5645 13.6323 16.965 13.555 16.1606ZM14.995 24.6998C14.4676 24.6998 14.0078 24.5302 13.6136 24.1875C13.2194 23.8463 13.0229 23.3681 13.0229 22.7541C13.0229 22.2183 13.2104 21.7603 13.5864 21.3848C13.9637 21.007 14.4236 20.8195 14.9697 20.8195C15.5158 20.8195 15.9789 21.007 16.3651 21.3848C16.7472 21.7603 16.9436 22.2183 16.9436 22.7541C16.9436 23.3587 16.7472 23.8359 16.3595 24.1809C15.9868 24.5205 15.4991 24.706 14.995 24.6998Z" fill="#1F2E35"/>
</svg>
